<svg xmlns="http://www.w3.org/2000/svg" width="520" height="320" viewBox="0 0 520 320" role="img" aria-labelledby="title desc">
  <title id="title">Ödeme ve güvenlik logoları</title>
  <desc id="desc">Mastercard, Maestro, Troy, Visa, Visa Electron, PCI DSS, 3D Secure ve Güvenli Öde.</desc>
  <rect width="520" height="320" rx="20" fill="#fff"/>
  <g fill="#fff" stroke="#e5e7eb" stroke-width="2">
    <rect x="0" y="0" width="120" height="145" rx="14"/>
    <rect x="133" y="0" width="120" height="145" rx="14"/>
    <rect x="266" y="0" width="120" height="145" rx="14"/>
    <rect x="399" y="0" width="120" height="145" rx="14"/>
    <rect x="0" y="160" width="120" height="145" rx="14"/>
    <rect x="133" y="160" width="120" height="145" rx="14"/>
    <rect x="266" y="160" width="120" height="145" rx="14"/>
    <rect x="399" y="160" width="120" height="145" rx="14"/>
  </g>

  <g font-family="Arial, Helvetica, sans-serif" text-anchor="middle">
    <g transform="translate(60 54)">
      <circle cx="-12" cy="0" r="29" fill="#eb001b"/>
      <circle cx="12" cy="0" r="29" fill="#f79e1b"/>
      <path d="M0-20a29 29 0 0 1 0 40 29 29 0 0 1 0-40Z" fill="#ff5f00"/>
      <text y="58" font-size="12" font-weight="700" fill="#263238">Mastercard</text>
    </g>

    <g transform="translate(193 54)">
      <circle cx="-12" cy="0" r="29" fill="#ed1c24"/>
      <circle cx="12" cy="0" r="29" fill="#0066b3"/>
      <path d="M0-20a29 29 0 0 1 0 40 29 29 0 0 1 0-40Z" fill="#5b2c83"/>
      <text y="58" font-size="13" font-style="italic" font-weight="700" fill="#263238">maestro</text>
    </g>

    <g transform="translate(326 57)">
      <text y="10" font-size="30" font-weight="900" letter-spacing="2" fill="#263238">TROY</text>
      <path d="M-34 25h68" stroke="#12a9c2" stroke-width="5"/>
      <text y="58" font-size="12" font-weight="700" fill="#667085">yerli ödeme</text>
    </g>

    <g transform="translate(459 54)">
      <text y="10" font-size="37" font-style="italic" font-weight="900" fill="#1434cb">VISA</text>
      <path d="M-31 26h62" stroke="#f4b400" stroke-width="5"/>
      <text y="58" font-size="12" font-weight="700" fill="#667085">kart ödemesi</text>
    </g>

    <g transform="translate(60 214)">
      <text y="8" font-size="28" font-style="italic" font-weight="900" fill="#172b85">VISA</text>
      <path d="M-30 23h60" stroke="#f4b400" stroke-width="5"/>
      <text y="58" font-size="12" font-weight="700" fill="#667085">Electron</text>
    </g>

    <g transform="translate(193 214)">
      <rect x="-44" y="-31" width="88" height="62" rx="7" fill="#147b83"/>
      <text y="8" font-size="27" font-weight="900" fill="#fff">PCI</text>
      <text y="25" font-size="11" font-weight="700" fill="#d7f8f8">DSS</text>
      <text y="58" font-size="12" font-weight="700" fill="#667085">güvenlik</text>
    </g>

    <g transform="translate(326 214)">
      <circle cx="0" cy="0" r="33" fill="#e5e7eb" stroke="#697586" stroke-width="3"/>
      <text y="8" font-size="23" font-weight="900" fill="#475467">3D</text>
      <text y="58" font-size="12" font-weight="700" fill="#667085">Secure</text>
    </g>

    <g transform="translate(459 214)">
      <rect x="-54" y="-31" width="108" height="62" rx="7" fill="#10b7c7"/>
      <circle cx="-28" cy="0" r="16" fill="none" stroke="#fff" stroke-width="7"/>
      <path d="M-19-11 0 0l-19 11" fill="none" stroke="#fff" stroke-width="5" stroke-linecap="round" stroke-linejoin="round"/>
      <text x="17" y="6" font-size="10" font-weight="900" fill="#fff">GÜVENLİ ÖDE</text>
      <text y="58" font-size="12" font-weight="700" fill="#667085">korumalı ödeme</text>
    </g>
  </g>
</svg>
